# xmcd CD database file
#
# Track frame offsets:
#	150
#	31395
#	69405
#	93900
#	120432
#	128597
#	152620
#	161910
#	201492
#	223040
#	240477
#
# Disc length: 3600 seconds
#
# Revision: 0
# Processed by: cddbd v1.5.1PL2 Copyright (c) Steve Scherf et al.
# Submitted via: CDex 1.51
#
DISCID=910e0e0b
DTITLE=Sonic Fiction - Changing With The Times
DYEAR=1998
DGENRE=Jazz
TTITLE0=Finlayson St 7
TTITLE1=Changing With The Times
TTITLE2=Ringing Changes
TTITLE3=The Greenway
TTITLE4=35 Today
TTITLE5=The Rest
TTITLE6=Dark Prelude
TTITLE7=Mind Games
TTITLE8=Remember
TTITLE9=Tower
TTITLE10=Street Scene
EXTD=YEAR: 1998
EXTT0=
EXTT1=
EXTT2=
EXTT3=
EXTT4=
EXTT5=
EXTT6=
EXTT7=
EXTT8=
EXTT9=
EXTT10=
PLAYORDER=
